<?xml version="1.0" encoding="utf-8"?>
<svg width="50px" height="50px" viewBox="0 0 50 50" version="1.1" xmlns:xlink="http://www.w3.org/1999/xlink" xmlns="http://www.w3.org/2000/svg">
  <defs>
    <path d="M50 0L50 0L50 50L0 50L0 0L50 0Z" id="path_1" />
    <clipPath id="clip_1">
      <use xlink:href="#path_1" clip-rule="evenodd" fill-rule="evenodd" />
    </clipPath>
  </defs>
  <g id="Menu">
    <path d="M50 0L50 0L50 50L0 50L0 0L50 0Z" id="Menu" fill="none" stroke="none" />
    <path d="M5.46875 22.6563L5.46875 26.5625L44.5313 27.3438L44.5313 21.875L5.46875 22.6563L5.46875 22.6563ZM5.46875 8.59375L5.46875 13.2813L44.5313 13.2813L44.5313 8.59375L5.46875 8.59375L5.46875 8.59375ZM5.46875 35.9375L5.46875 41.4063L44.5313 40.625L44.5313 36.7188L5.46875 35.9375L5.46875 35.9375Z" id="Shape" fill="#222433" fill-rule="evenodd" stroke="none" clip-path="url(#clip_1)" />
  </g>
</svg>